<svg width="22" height="19" viewBox="0 0 22 19" fill="none" xmlns="http://www.w3.org/2000/svg">
<rect width="22" height="19" rx="1" fill="#BC6366"/>
<path d="M18.2562 9.66438C18.2006 9.56662 18.1261 9.4809 18.0371 9.41223C17.948 9.34356 17.8462 9.29329 17.7375 9.26438C17.2445 9.1383 16.7339 9.09605 16.2269 9.13938C16.5187 7.85 16.3281 6.8325 16.1362 6.23938C16.0693 6.02985 15.9267 5.85276 15.7363 5.74264C15.5459 5.63253 15.3212 5.59727 15.1062 5.64375C14.4389 5.79341 13.8071 6.07173 13.2462 6.46313C12.8559 5.61399 12.2658 4.87202 11.5262 4.30063C11.3745 4.18629 11.1897 4.12445 10.9997 4.12445C10.8097 4.12445 10.6249 4.18629 10.4731 4.30063C9.734 4.87227 9.14411 5.61419 8.75375 6.46313C8.19269 6.07166 7.56069 5.79334 6.89312 5.64375C6.67812 5.59733 6.45354 5.63269 6.2632 5.74294C6.07287 5.85319 5.93045 6.0304 5.86375 6.24C5.67187 6.83313 5.48125 7.85063 5.77312 9.14C5.26613 9.09667 4.75547 9.13893 4.2625 9.265C4.15381 9.29392 4.05197 9.34418 3.96291 9.41286C3.87385 9.48153 3.79935 9.56724 3.74375 9.665C3.68531 9.76547 3.64748 9.87657 3.63246 9.99182C3.61743 10.1071 3.62552 10.2242 3.65625 10.3363C3.86312 11.1038 4.5 12.5625 6.4325 13.7194C8.365 14.8762 10.0806 14.875 11 14.875C11.9194 14.875 13.6325 14.875 15.5662 13.7194C17.5 12.5637 18.1356 11.1037 18.3425 10.3356C18.3734 10.2236 18.3817 10.1066 18.3669 9.99132C18.3521 9.87608 18.3145 9.76493 18.2562 9.66438ZM13.53 7.18125C14.0446 6.79322 14.6354 6.51846 15.2637 6.375C15.2971 6.36819 15.3318 6.37401 15.3612 6.39133C15.3905 6.40865 15.4123 6.43624 15.4225 6.46875C15.6687 7.2325 15.9106 8.8125 14.7606 10.8125C14.2989 11.6013 13.7073 12.3065 13.0106 12.8981C13.4906 12.0625 13.875 10.9331 13.875 9.44812C13.8809 8.67899 13.7644 7.91381 13.53 7.18125ZM6.5775 6.47063C6.58727 6.43776 6.60897 6.40974 6.63834 6.39205C6.66771 6.37436 6.70263 6.36828 6.73625 6.375C7.36456 6.51846 7.95541 6.79322 8.47 7.18125C8.23558 7.91381 8.11913 8.67899 8.125 9.44812C8.125 10.9331 8.50937 12.0637 8.98812 12.8962C8.29129 12.3048 7.6996 11.5996 7.23812 10.8106C6.08937 8.8125 6.33125 7.2325 6.5775 6.47063ZM6.8175 13.075C5.11125 12.0556 4.55812 10.7987 4.38 10.1375C4.37533 10.1207 4.37408 10.1031 4.37634 10.0859C4.37859 10.0686 4.3843 10.0519 4.39312 10.0369C4.40664 10.0127 4.42907 9.99476 4.45562 9.98688C4.96075 9.86143 5.48592 9.83868 6 9.92C6.1585 10.3591 6.35573 10.7833 6.58937 11.1875C7.2306 12.2941 8.10501 13.2478 9.15187 13.9825C8.32656 13.8192 7.5364 13.512 6.8175 13.075ZM11 14.0538C10.4575 13.6663 8.875 12.2913 8.875 9.44812C8.875 6.73812 10.3087 5.36438 10.925 4.89938C10.9466 4.88315 10.973 4.87438 11 4.87438C11.027 4.87438 11.0534 4.88315 11.075 4.89938C11.6912 5.36438 13.125 6.73812 13.125 9.44812C13.125 12.3088 11.5506 13.6669 11 14.0538ZM17.6187 10.14C17.4406 10.7988 16.8875 12.0556 15.1812 13.0775C14.4616 13.5136 13.6708 13.8198 12.845 13.9819C13.8919 13.2472 14.7663 12.2934 15.4075 11.1869C15.6422 10.783 15.8405 10.359 16 9.92C16.5146 9.83933 17.0403 9.86292 17.5456 9.98938C17.5722 9.99726 17.5946 10.0152 17.6081 10.0394C17.6167 10.0545 17.6222 10.0712 17.6243 10.0885C17.6263 10.1058 17.6249 10.1233 17.62 10.14H17.6187Z" fill="white"/>
</svg>
